<svg width="540" height="540" viewBox="0 0 540 540" fill="none" xmlns="http://www.w3.org/2000/svg">
<path d="M337.129 47.6608L270.131 19.7217V25.8072L337.129 53.7464V47.6608Z" fill="#05BC67"/>
<path d="M337.129 38.2696L270.131 10.3304V16.416L337.129 44.3551V38.2696Z" fill="#05BC67"/>
<path d="M322.967 22.849L270.131 0.939087V7.02465L322.967 28.9439V22.849Z" fill="#05BC67"/>
<path d="M201.265 47.6608L268.253 19.7217V25.8072L201.265 53.7464V47.6608Z" fill="#05BC67"/>
<path d="M201.265 38.2696L268.253 10.3304V16.416L201.265 44.3551V38.2696Z" fill="#05BC67"/>
<path d="M215.418 22.849L268.253 0.939087V7.02465L215.418 28.9439V22.849Z" fill="#05BC67"/>
<path d="M281.241 340.285L273.935 337.261V324.272L281.241 327.296V340.285Z" fill="#05BC67"/>
<path d="M281.241 314.299L273.935 311.275V298.296L281.241 301.32V314.299Z" fill="#05BC67"/>
<path d="M281.241 288.322L273.935 285.298V272.31L281.241 275.334V288.322Z" fill="#05BC67"/>
<path d="M281.241 236.36L273.935 233.327V220.348L281.241 223.372V236.36Z" fill="#05BC67"/>
<path d="M281.241 210.375L273.935 207.351V194.362L281.241 197.386V210.375Z" fill="#05BC67"/>
<path d="M281.241 184.389L273.935 181.365V168.386L281.241 171.41V184.389Z" fill="#05BC67"/>
<path d="M281.241 158.413L273.935 155.389V142.4L281.241 145.424V158.413Z" fill="#05BC67"/>
<path d="M281.241 132.427L273.935 129.403V116.415L281.241 119.448V132.427Z" fill="#05BC67"/>
<path d="M281.241 106.45L273.935 103.417V90.4382L281.241 93.4622V106.45Z" fill="#05BC67"/>
<path d="M281.241 80.4647L273.935 77.4407V64.4525L281.241 67.4765V80.4647Z" fill="#05BC67"/>
<path d="M281.241 54.479L273.935 51.455V38.4668L281.241 41.5002V54.479Z" fill="#05BC67"/>
<path d="M293.216 344.511L285.909 341.487V328.498L293.216 331.522V344.511Z" fill="#05BC67"/>
<path d="M293.216 344.511L285.909 341.487V328.498L293.216 331.522V344.511Z" fill="#05BC67"/>
<path d="M293.216 370.919L285.909 367.895V354.907L293.216 357.94V370.919Z" fill="#05BC67"/>
<path d="M305.424 385.119L298.118 382.095V369.116L305.424 372.14V385.119Z" fill="#05BC67"/>
<path d="M293.216 423.745L285.909 420.712V407.733L293.216 410.757V423.745Z" fill="#05BC67"/>
<path d="M293.216 318.525L285.909 315.501V302.522L293.216 305.546V318.525Z" fill="#05BC67"/>
<path d="M293.216 292.549L285.909 289.525V276.536L293.216 279.56V292.549Z" fill="#05BC67"/>
<path d="M293.216 266.563L285.909 263.539V250.551L293.216 253.584V266.563Z" fill="#05BC67"/>
<path d="M293.216 240.587L285.909 237.553V224.574L293.216 227.598V240.587Z" fill="#05BC67"/>
<path d="M293.216 162.639L285.909 159.615V146.626L293.216 149.65V162.639Z" fill="#05BC67"/>
<path d="M293.216 136.653L285.909 133.629V120.641L293.216 123.674V136.653Z" fill="#05BC67"/>
<path d="M293.216 84.6908L285.909 81.6668V68.6786L293.216 71.7026V84.6908Z" fill="#05BC67"/>
<path d="M293.216 58.705L285.909 55.681V42.6929L293.216 45.7263V58.705Z" fill="#05BC67"/>
<path d="M305.424 297.714L298.118 294.69V281.702L305.424 284.726V297.714Z" fill="#05BC67"/>
<path d="M305.424 271.728L298.118 268.704V255.716L305.424 258.749V271.728Z" fill="#05BC67"/>
<path d="M305.424 245.752L298.118 242.718V229.74L305.424 232.764V245.752Z" fill="#05BC67"/>
<path d="M305.424 219.766L298.118 216.742V203.754L305.424 206.778V219.766Z" fill="#05BC67"/>
<path d="M305.424 193.78L298.118 190.756V177.777L305.424 180.801V193.78Z" fill="#05BC67"/>
<path d="M305.424 167.804L298.118 164.78V151.792L305.424 154.816V167.804Z" fill="#05BC67"/>
<path d="M305.424 115.842L298.118 112.808V99.8296L305.424 102.854V115.842Z" fill="#05BC67"/>
<path d="M305.424 89.856L298.118 86.832V73.8439L305.424 76.8679V89.856Z" fill="#05BC67"/>
<path d="M305.424 63.8703L298.118 60.8463V47.8582L305.424 50.8916V63.8703Z" fill="#05BC67"/>
<path d="M318.13 354.907L310.824 351.883V338.895L318.13 341.928V354.907Z" fill="#05BC67"/>
<path d="M318.13 302.945L310.824 299.921V286.932L318.13 289.966V302.945Z" fill="#05BC67"/>
<path d="M318.13 276.968L310.824 273.935V260.956L318.13 263.98V276.968Z" fill="#05BC67"/>
<path d="M318.13 250.983L310.824 247.959V234.97L318.13 237.994V250.983Z" fill="#05BC67"/>
<path d="M318.13 224.997L310.824 221.973V208.985L318.13 212.018V224.997Z" fill="#05BC67"/>
<path d="M318.13 199.02L310.824 195.987V183.008L318.13 186.032V199.02Z" fill="#05BC67"/>
<path d="M318.13 173.035L310.824 170.011V157.023L318.13 160.047V173.035Z" fill="#05BC67"/>
<path d="M318.13 147.058L310.824 144.025V131.046L318.13 134.07V147.058Z" fill="#05BC67"/>
<path d="M318.13 121.073L310.824 118.049V105.06L318.13 108.084V121.073Z" fill="#05BC67"/>
<path d="M318.13 95.0869L310.824 92.0629V79.0747L318.13 82.1081V95.0869Z" fill="#05BC67"/>
<path d="M318.13 69.1106L310.824 66.0772V53.0984L318.13 56.1224V69.1106Z" fill="#05BC67"/>
<path d="M330.273 360.523L322.967 357.499V344.511L330.273 347.535V360.523Z" fill="#05BC67"/>
<path d="M330.273 334.537L322.967 331.513V318.525L330.273 321.558V334.537Z" fill="#05BC67"/>
<path d="M330.273 308.561L322.967 305.527V292.549L330.273 295.573V308.561Z" fill="#05BC67"/>
<path d="M330.273 282.575L322.967 279.551V266.563L330.273 269.587V282.575Z" fill="#05BC67"/>
<path d="M330.273 256.589L322.967 253.565V240.586L330.273 243.61V256.589Z" fill="#05BC67"/>
<path d="M330.273 204.627L322.967 201.603V188.615L330.273 191.648V204.627Z" fill="#05BC67"/>
<path d="M330.273 178.651L322.967 175.617V162.639L330.273 165.663V178.651Z" fill="#05BC67"/>
<path d="M330.273 152.665L322.967 149.641V136.653L330.273 139.677V152.665Z" fill="#05BC67"/>
<path d="M330.273 126.679L322.967 123.655V110.677L330.273 113.701V126.679Z" fill="#05BC67"/>
<path d="M330.273 74.7173L322.967 71.6933V58.7051L330.273 61.7385V74.7173Z" fill="#05BC67"/>
<path d="M321.784 401.131L314.478 398.107V385.119L321.784 388.152V401.131Z" fill="#05BC67"/>
<path d="M257.369 340.285L264.675 337.261V324.272L257.369 327.296V340.285Z" fill="#05BC67"/>
<path d="M257.369 314.299L264.675 311.275V298.296L257.369 301.32V314.299Z" fill="#05BC67"/>
<path d="M257.369 288.322L264.675 285.298V272.31L257.369 275.334V288.322Z" fill="#05BC67"/>
<path d="M257.369 236.36L264.675 233.327V220.348L257.369 223.372V236.36Z" fill="#05BC67"/>
<path d="M257.369 210.375L264.675 207.351V194.362L257.369 197.386V210.375Z" fill="#05BC67"/>
<path d="M257.369 184.389L264.675 181.365V168.386L257.369 171.41V184.389Z" fill="#05BC67"/>
<path d="M257.369 158.413L264.675 155.389V142.4L257.369 145.424V158.413Z" fill="#05BC67"/>
<path d="M257.369 132.427L264.675 129.403V116.415L257.369 119.448V132.427Z" fill="#05BC67"/>
<path d="M257.369 106.45L264.675 103.417V90.4382L257.369 93.4622V106.45Z" fill="#05BC67"/>
<path d="M257.369 80.4647L264.675 77.4407V64.4525L257.369 67.4765V80.4647Z" fill="#05BC67"/>
<path d="M257.369 54.479L264.675 51.455V38.4668L257.369 41.5002V54.479Z" fill="#05BC67"/>
<path d="M245.395 344.511L252.701 341.487V328.498L245.395 331.522V344.511Z" fill="#05BC67"/>
<path d="M245.395 344.511L252.701 341.487V328.498L245.395 331.522V344.511Z" fill="#05BC67"/>
<path d="M245.395 370.919L252.701 367.895V354.907L245.395 357.94V370.919Z" fill="#05BC67"/>
<path d="M233.187 385.119L240.493 382.095V369.116L233.187 372.14V385.119Z" fill="#05BC67"/>
<path d="M245.395 423.745L252.701 420.712V407.733L245.395 410.757V423.745Z" fill="#05BC67"/>
<path d="M245.395 318.525L252.701 315.501V302.522L245.395 305.546V318.525Z" fill="#05BC67"/>
<path d="M245.395 292.549L252.701 289.525V276.536L245.395 279.56V292.549Z" fill="#05BC67"/>
<path d="M245.395 266.563L252.701 263.539V250.551L245.395 253.584V266.563Z" fill="#05BC67"/>
<path d="M245.395 240.587L252.701 237.553V224.574L245.395 227.598V240.587Z" fill="#05BC67"/>
<path d="M245.395 162.639L252.701 159.615V146.626L245.395 149.65V162.639Z" fill="#05BC67"/>
<path d="M245.395 136.653L252.701 133.629V120.641L245.395 123.674V136.653Z" fill="#05BC67"/>
<path d="M245.395 84.6908L252.701 81.6668V68.6786L245.395 71.7026V84.6908Z" fill="#05BC67"/>
<path d="M245.395 58.705L252.701 55.681V42.6929L245.395 45.7263V58.705Z" fill="#05BC67"/>
<path d="M233.186 297.714L240.492 294.69V281.702L233.186 284.726V297.714Z" fill="#05BC67"/>
<path d="M233.186 271.728L240.492 268.704V255.716L233.186 258.749V271.728Z" fill="#05BC67"/>
<path d="M233.186 245.752L240.492 242.718V229.74L233.186 232.764V245.752Z" fill="#05BC67"/>
<path d="M233.186 219.766L240.492 216.742V203.754L233.186 206.778V219.766Z" fill="#05BC67"/>
<path d="M233.186 193.78L240.492 190.756V177.777L233.186 180.801V193.78Z" fill="#05BC67"/>
<path d="M233.186 167.804L240.492 164.78V151.792L233.186 154.816V167.804Z" fill="#05BC67"/>
<path d="M233.186 115.842L240.492 112.808V99.8295L233.186 102.853V115.842Z" fill="#05BC67"/>
<path d="M233.186 89.8559L240.492 86.8319V73.8438L233.186 76.8678V89.8559Z" fill="#05BC67"/>
<path d="M233.186 63.8702L240.492 60.8462V47.858L233.186 50.8914V63.8702Z" fill="#05BC67"/>
<path d="M220.479 354.907L227.777 351.883V338.895L220.479 341.928V354.907Z" fill="#05BC67"/>
<path d="M220.479 302.945L227.777 299.921V286.932L220.479 289.966V302.945Z" fill="#05BC67"/>
<path d="M220.479 276.968L227.777 273.935V260.956L220.479 263.98V276.968Z" fill="#05BC67"/>
<path d="M220.479 250.983L227.777 247.959V234.97L220.479 237.994V250.983Z" fill="#05BC67"/>
<path d="M220.479 224.997L227.777 221.973V208.985L220.479 212.018V224.997Z" fill="#05BC67"/>
<path d="M220.479 199.02L227.777 195.987V183.008L220.479 186.032V199.02Z" fill="#05BC67"/>
<path d="M220.479 173.035L227.777 170.011V157.023L220.479 160.047V173.035Z" fill="#05BC67"/>
<path d="M220.479 147.058L227.777 144.025V131.046L220.479 134.07V147.058Z" fill="#05BC67"/>
<path d="M220.479 121.073L227.777 118.049V105.06L220.479 108.084V121.073Z" fill="#05BC67"/>
<path d="M220.479 95.0869L227.777 92.0629V79.0747L220.479 82.1081V95.0869Z" fill="#05BC67"/>
<path d="M220.479 69.1106L227.777 66.0772V53.0984L220.479 56.1224V69.1106Z" fill="#05BC67"/>
<path d="M208.337 360.523L215.634 357.499V344.511L208.337 347.535V360.523Z" fill="#05BC67"/>
<path d="M208.337 334.537L215.634 331.513V318.525L208.337 321.558V334.537Z" fill="#05BC67"/>
<path d="M208.337 308.561L215.634 305.527V292.549L208.337 295.573V308.561Z" fill="#05BC67"/>
<path d="M208.337 282.575L215.634 279.551V266.563L208.337 269.587V282.575Z" fill="#05BC67"/>
<path d="M208.337 256.589L215.634 253.565V240.586L208.337 243.61V256.589Z" fill="#05BC67"/>
<path d="M208.337 204.627L215.634 201.603V188.615L208.337 191.648V204.627Z" fill="#05BC67"/>
<path d="M208.337 178.651L215.634 175.617V162.639L208.337 165.663V178.651Z" fill="#05BC67"/>
<path d="M208.337 152.665L215.634 149.641V136.653L208.337 139.677V152.665Z" fill="#05BC67"/>
<path d="M208.337 126.679L215.634 123.655V110.677L208.337 113.701V126.679Z" fill="#05BC67"/>
<path d="M208.337 74.7173L215.634 71.6933V58.7051L208.337 61.7385V74.7173Z" fill="#05BC67"/>
<path d="M216.827 401.131L224.124 398.107V385.119L216.827 388.152V401.131Z" fill="#05BC67"/>
<path d="M281.241 340.285L273.935 337.261V324.272L281.241 327.296V340.285Z" fill="#05BC67"/>
<path d="M281.241 314.299L273.935 311.275V298.296L281.241 301.32V314.299Z" fill="#05BC67"/>
<path d="M281.241 288.322L273.935 285.298V272.31L281.241 275.334V288.322Z" fill="#05BC67"/>
<path d="M281.241 236.36L273.935 233.327V220.348L281.241 223.372V236.36Z" fill="#05BC67"/>
<path d="M281.241 210.375L273.935 207.351V194.362L281.241 197.386V210.375Z" fill="#05BC67"/>
<path d="M281.241 184.389L273.935 181.365V168.386L281.241 171.41V184.389Z" fill="#05BC67"/>
<path d="M281.241 158.413L273.935 155.389V142.4L281.241 145.424V158.413Z" fill="#05BC67"/>
<path d="M281.241 132.427L273.935 129.403V116.415L281.241 119.448V132.427Z" fill="#05BC67"/>
<path d="M281.241 106.45L273.935 103.417V90.4382L281.241 93.4622V106.45Z" fill="#05BC67"/>
<path d="M281.241 80.4647L273.935 77.4407V64.4525L281.241 67.4765V80.4647Z" fill="#05BC67"/>
<path d="M281.241 54.479L273.935 51.455V38.4668L281.241 41.5002V54.479Z" fill="#05BC67"/>
<path d="M293.216 344.511L285.909 341.487V328.498L293.216 331.522V344.511Z" fill="#05BC67"/>
<path d="M293.216 344.511L285.909 341.487V328.498L293.216 331.522V344.511Z" fill="#05BC67"/>
<path d="M293.216 370.919L285.909 367.895V354.907L293.216 357.94V370.919Z" fill="#05BC67"/>
<path d="M305.424 385.119L298.118 382.095V369.116L305.424 372.14V385.119Z" fill="#05BC67"/>
<path d="M293.216 423.745L285.909 420.712V407.733L293.216 410.757V423.745Z" fill="#05BC67"/>
<path d="M293.216 318.525L285.909 315.501V302.522L293.216 305.546V318.525Z" fill="#05BC67"/>
<path d="M293.216 292.549L285.909 289.525V276.536L293.216 279.56V292.549Z" fill="#05BC67"/>
<path d="M293.216 266.563L285.909 263.539V250.551L293.216 253.584V266.563Z" fill="#05BC67"/>
<path d="M293.216 240.587L285.909 237.553V224.574L293.216 227.598V240.587Z" fill="#05BC67"/>
<path d="M293.216 162.639L285.909 159.615V146.626L293.216 149.65V162.639Z" fill="#05BC67"/>
<path d="M293.216 136.653L285.909 133.629V120.641L293.216 123.674V136.653Z" fill="#05BC67"/>
<path d="M293.216 84.6908L285.909 81.6668V68.6786L293.216 71.7026V84.6908Z" fill="#05BC67"/>
<path d="M293.216 58.705L285.909 55.681V42.6929L293.216 45.7263V58.705Z" fill="#05BC67"/>
<path d="M305.424 297.714L298.118 294.69V281.702L305.424 284.726V297.714Z" fill="#05BC67"/>
<path d="M305.424 271.728L298.118 268.704V255.716L305.424 258.749V271.728Z" fill="#05BC67"/>
<path d="M305.424 245.752L298.118 242.718V229.74L305.424 232.764V245.752Z" fill="#05BC67"/>
<path d="M305.424 219.766L298.118 216.742V203.754L305.424 206.778V219.766Z" fill="#05BC67"/>
<path d="M305.424 193.78L298.118 190.756V177.777L305.424 180.801V193.78Z" fill="#05BC67"/>
<path d="M305.424 167.804L298.118 164.78V151.792L305.424 154.816V167.804Z" fill="#05BC67"/>
<path d="M305.424 115.842L298.118 112.808V99.8296L305.424 102.854V115.842Z" fill="#05BC67"/>
<path d="M305.424 89.856L298.118 86.832V73.8439L305.424 76.8679V89.856Z" fill="#05BC67"/>
<path d="M305.424 63.8703L298.118 60.8463V47.8582L305.424 50.8916V63.8703Z" fill="#05BC67"/>
<path d="M318.13 354.907L310.824 351.883V338.895L318.13 341.928V354.907Z" fill="#05BC67"/>
<path d="M318.13 302.945L310.824 299.921V286.932L318.13 289.966V302.945Z" fill="#05BC67"/>
<path d="M318.13 276.968L310.824 273.935V260.956L318.13 263.98V276.968Z" fill="#05BC67"/>
<path d="M318.13 250.983L310.824 247.959V234.97L318.13 237.994V250.983Z" fill="#05BC67"/>
<path d="M318.13 224.997L310.824 221.973V208.985L318.13 212.018V224.997Z" fill="#05BC67"/>
<path d="M318.13 199.02L310.824 195.987V183.008L318.13 186.032V199.02Z" fill="#05BC67"/>
<path d="M318.13 173.035L310.824 170.011V157.023L318.13 160.047V173.035Z" fill="#05BC67"/>
<path d="M318.13 147.058L310.824 144.025V131.046L318.13 134.07V147.058Z" fill="#05BC67"/>
<path d="M318.13 121.073L310.824 118.049V105.06L318.13 108.084V121.073Z" fill="#05BC67"/>
<path d="M318.13 95.0869L310.824 92.0629V79.0747L318.13 82.1081V95.0869Z" fill="#05BC67"/>
<path d="M318.13 69.1106L310.824 66.0772V53.0984L318.13 56.1224V69.1106Z" fill="#05BC67"/>
<path d="M330.273 360.523L322.967 357.499V344.511L330.273 347.535V360.523Z" fill="#05BC67"/>
<path d="M330.273 334.537L322.967 331.513V318.525L330.273 321.558V334.537Z" fill="#05BC67"/>
<path d="M330.273 308.561L322.967 305.527V292.549L330.273 295.573V308.561Z" fill="#05BC67"/>
<path d="M330.273 282.575L322.967 279.551V266.563L330.273 269.587V282.575Z" fill="#05BC67"/>
<path d="M330.273 256.589L322.967 253.565V240.586L330.273 243.61V256.589Z" fill="#05BC67"/>
<path d="M330.273 204.627L322.967 201.603V188.615L330.273 191.648V204.627Z" fill="#05BC67"/>
<path d="M330.273 178.651L322.967 175.617V162.639L330.273 165.663V178.651Z" fill="#05BC67"/>
<path d="M330.273 152.665L322.967 149.641V136.653L330.273 139.677V152.665Z" fill="#05BC67"/>
<path d="M330.273 126.679L322.967 123.655V110.677L330.273 113.701V126.679Z" fill="#05BC67"/>
<path d="M330.273 74.7173L322.967 71.6933V58.7051L330.273 61.7385V74.7173Z" fill="#05BC67"/>
<path d="M321.784 401.131L314.478 398.107V385.119L321.784 388.152V401.131Z" fill="#05BC67"/>
<path d="M257.369 340.285L264.675 337.261V324.272L257.369 327.296V340.285Z" fill="#05BC67"/>
<path d="M257.369 314.299L264.675 311.275V298.296L257.369 301.32V314.299Z" fill="#05BC67"/>
<path d="M257.369 288.322L264.675 285.298V272.31L257.369 275.334V288.322Z" fill="#05BC67"/>
<path d="M257.369 236.36L264.675 233.327V220.348L257.369 223.372V236.36Z" fill="#05BC67"/>
<path d="M257.369 210.375L264.675 207.351V194.362L257.369 197.386V210.375Z" fill="#05BC67"/>
<path d="M257.369 184.389L264.675 181.365V168.386L257.369 171.41V184.389Z" fill="#05BC67"/>
<path d="M257.369 158.413L264.675 155.389V142.4L257.369 145.424V158.413Z" fill="#05BC67"/>
<path d="M257.369 132.427L264.675 129.403V116.415L257.369 119.448V132.427Z" fill="#05BC67"/>
<path d="M257.369 106.45L264.675 103.417V90.4382L257.369 93.4622V106.45Z" fill="#05BC67"/>
<path d="M257.369 80.4647L264.675 77.4407V64.4525L257.369 67.4765V80.4647Z" fill="#05BC67"/>
<path d="M257.369 54.479L264.675 51.455V38.4668L257.369 41.5002V54.479Z" fill="#05BC67"/>
<path d="M245.395 344.511L252.701 341.487V328.498L245.395 331.522V344.511Z" fill="#05BC67"/>
<path d="M245.395 344.511L252.701 341.487V328.498L245.395 331.522V344.511Z" fill="#05BC67"/>
<path d="M245.395 370.919L252.701 367.895V354.907L245.395 357.94V370.919Z" fill="#05BC67"/>
<path d="M233.187 385.119L240.493 382.095V369.116L233.187 372.14V385.119Z" fill="#05BC67"/>
<path d="M245.395 423.745L252.701 420.712V407.733L245.395 410.757V423.745Z" fill="#05BC67"/>
<path d="M245.395 318.525L252.701 315.501V302.522L245.395 305.546V318.525Z" fill="#05BC67"/>
<path d="M245.395 292.549L252.701 289.525V276.536L245.395 279.56V292.549Z" fill="#05BC67"/>
<path d="M245.395 266.563L252.701 263.539V250.551L245.395 253.584V266.563Z" fill="#05BC67"/>
<path d="M245.395 240.587L252.701 237.553V224.574L245.395 227.598V240.587Z" fill="#05BC67"/>
<path d="M245.395 162.639L252.701 159.615V146.626L245.395 149.65V162.639Z" fill="#05BC67"/>
<path d="M245.395 136.653L252.701 133.629V120.641L245.395 123.674V136.653Z" fill="#05BC67"/>
<path d="M245.395 84.6908L252.701 81.6668V68.6786L245.395 71.7026V84.6908Z" fill="#05BC67"/>
<path d="M245.395 58.705L252.701 55.681V42.6929L245.395 45.7263V58.705Z" fill="#05BC67"/>
<path d="M233.186 297.714L240.492 294.69V281.702L233.186 284.726V297.714Z" fill="#05BC67"/>
<path d="M233.186 271.728L240.492 268.704V255.716L233.186 258.749V271.728Z" fill="#05BC67"/>
<path d="M233.186 245.752L240.492 242.718V229.74L233.186 232.764V245.752Z" fill="#05BC67"/>
<path d="M233.186 219.766L240.492 216.742V203.754L233.186 206.778V219.766Z" fill="#05BC67"/>
<path d="M233.186 193.78L240.492 190.756V177.777L233.186 180.801V193.78Z" fill="#05BC67"/>
<path d="M233.186 167.804L240.492 164.78V151.792L233.186 154.816V167.804Z" fill="#05BC67"/>
<path d="M233.186 115.842L240.492 112.808V99.8295L233.186 102.853V115.842Z" fill="#05BC67"/>
<path d="M233.186 89.8559L240.492 86.8319V73.8438L233.186 76.8678V89.8559Z" fill="#05BC67"/>
<path d="M233.186 63.8702L240.492 60.8462V47.858L233.186 50.8914V63.8702Z" fill="#05BC67"/>
<path d="M220.479 354.907L227.777 351.883V338.895L220.479 341.928V354.907Z" fill="#05BC67"/>
<path d="M220.479 302.945L227.777 299.921V286.932L220.479 289.966V302.945Z" fill="#05BC67"/>
<path d="M220.479 276.968L227.777 273.935V260.956L220.479 263.98V276.968Z" fill="#05BC67"/>
<path d="M220.479 250.983L227.777 247.959V234.97L220.479 237.994V250.983Z" fill="#05BC67"/>
<path d="M220.479 224.997L227.777 221.973V208.985L220.479 212.018V224.997Z" fill="#05BC67"/>
<path d="M220.479 199.02L227.777 195.987V183.008L220.479 186.032V199.02Z" fill="#05BC67"/>
<path d="M220.479 173.035L227.777 170.011V157.023L220.479 160.047V173.035Z" fill="#05BC67"/>
<path d="M220.479 147.058L227.777 144.025V131.046L220.479 134.07V147.058Z" fill="#05BC67"/>
<path d="M220.479 121.073L227.777 118.049V105.06L220.479 108.084V121.073Z" fill="#05BC67"/>
<path d="M220.479 95.0869L227.777 92.0629V79.0747L220.479 82.1081V95.0869Z" fill="#05BC67"/>
<path d="M220.479 69.1106L227.777 66.0772V53.0984L220.479 56.1224V69.1106Z" fill="#05BC67"/>
<path d="M208.337 360.523L215.634 357.499V344.511L208.337 347.535V360.523Z" fill="#05BC67"/>
<path d="M208.337 334.537L215.634 331.513V318.525L208.337 321.558V334.537Z" fill="#05BC67"/>
<path d="M208.337 308.561L215.634 305.527V292.549L208.337 295.573V308.561Z" fill="#05BC67"/>
<path d="M208.337 282.575L215.634 279.551V266.563L208.337 269.587V282.575Z" fill="#05BC67"/>
<path d="M208.337 256.589L215.634 253.565V240.586L208.337 243.61V256.589Z" fill="#05BC67"/>
<path d="M208.337 204.627L215.634 201.603V188.615L208.337 191.648V204.627Z" fill="#05BC67"/>
<path d="M208.337 178.651L215.634 175.617V162.639L208.337 165.663V178.651Z" fill="#05BC67"/>
<path d="M208.337 152.665L215.634 149.641V136.653L208.337 139.677V152.665Z" fill="#05BC67"/>
<path d="M208.337 126.679L215.634 123.655V110.677L208.337 113.701V126.679Z" fill="#05BC67"/>
<path d="M208.337 74.7173L215.634 71.6933V58.7051L208.337 61.7385V74.7173Z" fill="#05BC67"/>
<path d="M216.827 401.131L224.124 398.107V385.119L216.827 388.152V401.131Z" fill="#05BC67"/>
<path d="M397.994 375.652L392.397 373.332V363.378L397.994 365.697V375.652Z" fill="#05BC67"/>
<path d="M397.994 355.733L392.397 353.414V343.459L397.994 345.778V355.733Z" fill="#05BC67"/>
<path d="M397.994 335.824L392.397 333.495V323.549L397.994 325.869V335.824Z" fill="#05BC67"/>
<path d="M397.994 295.986L392.397 293.666V283.711L397.994 286.04V295.986Z" fill="#05BC67"/>
<path d="M397.994 276.076L392.397 273.757V263.802L397.994 266.121V276.076Z" fill="#05BC67"/>
<path d="M397.994 256.157L392.397 253.838V243.883L397.994 246.202V256.157Z" fill="#05BC67"/>
<path d="M397.994 236.238L392.397 233.919V223.964L397.994 226.293V236.238Z" fill="#05BC67"/>
<path d="M397.994 216.329L392.397 214.009V204.054L397.994 206.374V216.329Z" fill="#05BC67"/>
<path d="M397.994 196.41L392.397 194.09V184.135L397.994 186.455V196.41Z" fill="#05BC67"/>
<path d="M397.994 176.491L392.397 174.171V164.226L397.994 166.545V176.491Z" fill="#05BC67"/>
<path d="M407.169 378.892L401.572 376.573V366.618L407.169 368.937V378.892Z" fill="#05BC67"/>
<path d="M407.169 378.892L401.572 376.573V366.618L407.169 368.937V378.892Z" fill="#05BC67"/>
<path d="M407.169 399.13L401.572 396.811V386.856L407.169 389.185V399.13Z" fill="#05BC67"/>
<path d="M416.532 410.015L410.935 407.695V397.75L416.532 400.07V410.015Z" fill="#05BC67"/>
<path d="M407.169 439.626L401.572 437.306V427.351L407.169 429.671V439.626Z" fill="#05BC67"/>
<path d="M423.473 459.141L417.875 456.821V446.866L423.473 449.186V459.141Z" fill="#05BC67"/>
<path d="M407.169 358.973L401.572 356.654V346.699L407.169 349.018V358.973Z" fill="#05BC67"/>
<path d="M407.169 339.054L401.572 336.735V326.789L407.169 329.109V339.054Z" fill="#05BC67"/>
<path d="M407.169 319.145L401.572 316.825V306.87L407.169 309.19V319.145Z" fill="#05BC67"/>
<path d="M407.169 299.226L401.572 296.906V286.951L407.169 289.271V299.226Z" fill="#05BC67"/>
<path d="M407.169 239.478L401.572 237.159V227.204L407.169 229.524V239.478Z" fill="#05BC67"/>
<path d="M407.169 219.569L401.572 217.249V207.294L407.169 209.614V219.569Z" fill="#05BC67"/>
<path d="M407.169 159.821L401.572 157.502V147.547L407.169 149.866V159.821Z" fill="#05BC67"/>
<path d="M416.532 343.017L410.935 340.698V330.743L416.532 333.063V343.017Z" fill="#05BC67"/>
<path d="M416.532 323.098L410.935 320.779V310.833L416.532 313.153V323.098Z" fill="#05BC67"/>
<path d="M416.532 283.27L410.935 280.95V270.995L416.532 273.315V283.27Z" fill="#05BC67"/>
<path d="M416.532 263.351L410.935 261.031V251.086L416.532 253.405V263.351Z" fill="#05BC67"/>
<path d="M416.532 243.441L410.935 241.122V231.167L416.532 233.487V243.441Z" fill="#05BC67"/>
<path d="M416.532 203.603L410.935 201.293V191.338L416.532 193.658V203.603Z" fill="#05BC67"/>
<path d="M416.532 183.694L410.935 181.374V171.419L416.532 173.739V183.694Z" fill="#05BC67"/>
<path d="M416.532 163.775L410.935 161.455V151.5L416.532 153.82V163.775Z" fill="#05BC67"/>
<path d="M426.271 386.856L420.674 384.546V374.591L426.271 376.911V386.856Z" fill="#05BC67"/>
<path d="M426.271 327.118L420.674 324.798V314.844L426.271 317.163V327.118Z" fill="#05BC67"/>
<path d="M426.271 307.199L420.674 304.879V294.925L426.271 297.244V307.199Z" fill="#05BC67"/>
<path d="M426.271 287.28L420.674 284.96V275.015L426.271 277.335V287.28Z" fill="#05BC67"/>
<path d="M426.271 267.37L420.674 265.051V255.096L426.271 257.416V267.37Z" fill="#05BC67"/>
<path d="M426.271 247.451L420.674 245.132V235.177L426.271 237.497V247.451Z" fill="#05BC67"/>
<path d="M426.271 227.532L420.674 225.213V215.267L426.271 217.587V227.532Z" fill="#05BC67"/>
<path d="M426.271 207.623L420.674 205.303V195.349L426.271 197.668V207.623Z" fill="#05BC67"/>
<path d="M426.271 187.704L420.674 185.384V175.43L426.271 177.749V187.704Z" fill="#05BC67"/>
<path d="M426.271 167.785L420.674 165.465V155.52L426.271 157.84V167.785Z" fill="#05BC67"/>
<path d="M435.578 391.167L429.981 388.847V378.892L435.578 381.212V391.167Z" fill="#05BC67"/>
<path d="M435.578 371.248L429.981 368.928V358.973L435.578 361.293V371.248Z" fill="#05BC67"/>
<path d="M435.578 351.329L429.981 349.009V339.054L435.578 341.383V351.329Z" fill="#05BC67"/>
<path d="M435.578 331.419L429.981 329.099V319.145L435.578 321.464V331.419Z" fill="#05BC67"/>
<path d="M435.578 311.5L429.981 309.18V299.226L435.578 301.545V311.5Z" fill="#05BC67"/>
<path d="M435.578 271.672L429.981 269.352V259.397L435.578 261.717V271.672Z" fill="#05BC67"/>
<path d="M435.578 251.753L429.981 249.433V239.478L435.578 241.798V251.753Z" fill="#05BC67"/>
<path d="M435.578 231.834L429.981 229.514V219.569L435.578 221.888V231.834Z" fill="#05BC67"/>
<path d="M435.578 211.924L429.981 209.604V199.65L435.578 201.969V211.924Z" fill="#05BC67"/>
<path d="M435.578 172.086L429.981 169.767V159.821L435.578 162.141V172.086Z" fill="#05BC67"/>
<path d="M429.07 422.289L423.473 419.97V410.015L429.07 412.344V422.289Z" fill="#05BC67"/>
<path d="M379.7 375.652L385.297 373.332V363.378L379.7 365.697V375.652Z" fill="#05BC67"/>
<path d="M379.7 355.733L385.297 353.414V343.459L379.7 345.778V355.733Z" fill="#05BC67"/>
<path d="M379.7 335.824L385.297 333.495V323.549L379.7 325.869V335.824Z" fill="#05BC67"/>
<path d="M379.7 295.986L385.297 293.666V283.711L379.7 286.04V295.986Z" fill="#05BC67"/>
<path d="M379.7 276.076L385.297 273.756V263.802L379.7 266.121V276.076Z" fill="#05BC67"/>
<path d="M379.7 256.157L385.297 253.837V243.883L379.7 246.202V256.157Z" fill="#05BC67"/>
<path d="M379.7 236.238L385.297 233.919V223.964L379.7 226.293V236.238Z" fill="#05BC67"/>
<path d="M379.7 216.329L385.297 214.009V204.054L379.7 206.374V216.329Z" fill="#05BC67"/>
<path d="M379.7 196.41L385.297 194.09V184.135L379.7 186.455V196.41Z" fill="#05BC67"/>
<path d="M370.524 378.892L376.122 376.573V366.618L370.524 368.937V378.892Z" fill="#05BC67"/>
<path d="M370.524 378.892L376.122 376.573V366.618L370.524 368.937V378.892Z" fill="#05BC67"/>
<path d="M370.524 399.13L376.122 396.811V386.856L370.524 389.185V399.13Z" fill="#05BC67"/>
<path d="M361.161 410.015L366.758 407.695V397.75L361.161 400.07V410.015Z" fill="#05BC67"/>
<path d="M370.524 439.626L376.122 437.306V427.351L370.524 429.671V439.626Z" fill="#05BC67"/>
<path d="M370.524 358.973L376.122 356.654V346.699L370.524 349.018V358.973Z" fill="#05BC67"/>
<path d="M370.524 319.145L376.122 316.825V306.87L370.524 309.19V319.145Z" fill="#05BC67"/>
<path d="M370.524 299.226L376.122 296.906V286.951L370.524 289.271V299.226Z" fill="#05BC67"/>
<path d="M370.524 239.478L376.122 237.159V227.204L370.524 229.524V239.478Z" fill="#05BC67"/>
<path d="M370.524 219.569L376.122 217.249V207.294L370.524 209.614V219.569Z" fill="#05BC67"/>
<path d="M370.524 179.731L376.122 177.411V167.456L370.524 169.776V179.731Z" fill="#05BC67"/>
<path d="M370.524 159.821L376.122 157.502V147.547L370.524 149.866V159.821Z" fill="#05BC67"/>
<path d="M361.161 343.017L366.758 340.698V330.743L361.161 333.063V343.017Z" fill="#05BC67"/>
<path d="M361.161 323.098L366.758 320.779V310.833L361.161 313.153V323.098Z" fill="#05BC67"/>
<path d="M361.161 303.189L366.758 300.869V290.914L361.161 293.234V303.189Z" fill="#05BC67"/>
<path d="M361.161 283.27L366.758 280.95V270.995L361.161 273.315V283.27Z" fill="#05BC67"/>
<path d="M361.161 263.351L366.758 261.031V251.086L361.161 253.405V263.351Z" fill="#05BC67"/>
<path d="M361.161 243.441L366.758 241.122V231.167L361.161 233.487V243.441Z" fill="#05BC67"/>
<path d="M361.161 203.603L366.758 201.293V191.338L361.161 193.658V203.603Z" fill="#05BC67"/>
<path d="M361.161 183.694L366.758 181.374V171.419L361.161 173.739V183.694Z" fill="#05BC67"/>
<path d="M351.413 386.856L357.02 384.546V374.591L351.413 376.911V386.856Z" fill="#05BC67"/>
<path d="M351.413 347.027L357.02 344.708V334.753L351.413 337.073V347.027Z" fill="#05BC67"/>
<path d="M351.413 327.118L357.02 324.798V314.844L351.413 317.163V327.118Z" fill="#05BC67"/>
<path d="M351.413 307.199L357.02 304.879V294.925L351.413 297.244V307.199Z" fill="#05BC67"/>
<path d="M351.413 287.28L357.02 284.96V275.015L351.413 277.335V287.28Z" fill="#05BC67"/>
<path d="M351.413 267.37L357.02 265.051V255.096L351.413 257.416V267.37Z" fill="#05BC67"/>
<path d="M351.413 247.451L357.02 245.132V235.177L351.413 237.497V247.451Z" fill="#05BC67"/>
<path d="M351.413 227.532L357.02 225.213V215.267L351.413 217.587V227.532Z" fill="#05BC67"/>
<path d="M351.413 207.623L357.02 205.303V195.349L351.413 197.668V207.623Z" fill="#05BC67"/>
<path d="M351.413 187.704L357.02 185.384V175.43L351.413 177.749V187.704Z" fill="#05BC67"/>
<path d="M351.413 167.785L357.02 165.465V155.52L351.413 157.84V167.785Z" fill="#05BC67"/>
<path d="M342.116 391.167L347.713 388.847V378.892L342.116 381.212V391.167Z" fill="#05BC67"/>
<path d="M342.116 371.248L347.713 368.928V358.973L342.116 361.293V371.248Z" fill="#05BC67"/>
<path d="M342.116 351.329L347.713 349.009V339.054L342.116 341.383V351.329Z" fill="#05BC67"/>
<path d="M342.116 271.672L347.713 269.352V259.397L342.116 261.717V271.672Z" fill="#05BC67"/>
<path d="M342.116 251.753L347.713 249.433V239.478L342.116 241.798V251.753Z" fill="#05BC67"/>
<path d="M342.116 231.834L347.713 229.514V219.569L342.116 221.888V231.834Z" fill="#05BC67"/>
<path d="M342.116 211.924L347.713 209.604V199.65L342.116 201.969V211.924Z" fill="#05BC67"/>
<path d="M348.615 422.289L354.212 419.97V410.015L348.615 412.344V422.289Z" fill="#05BC67"/>
<path d="M420.674 436.808L415.077 434.479V424.534L420.674 426.854V436.808Z" fill="#05BC67"/>
<path d="M404.371 475.613L398.773 473.294V463.339L404.371 465.658V475.613Z" fill="#05BC67"/>
<path d="M420.674 487.888L415.077 485.568V475.613L420.674 477.933V487.888Z" fill="#05BC67"/>
<path d="M435.578 478.647L429.981 476.327V466.372L435.578 468.692V478.647Z" fill="#05BC67"/>
<path d="M354.221 444.998L359.818 442.678V432.723L354.221 435.043V444.998Z" fill="#05BC67"/>
<path d="M363.96 487.888L369.557 485.568V475.613L363.96 477.933V487.888Z" fill="#05BC67"/>
<path d="M143.34 387.72L136.042 384.696V371.708L143.34 374.732V387.72Z" fill="#05BC67"/>
<path d="M143.34 361.734L136.042 358.71V345.722L143.34 348.755V361.734Z" fill="#05BC67"/>
<path d="M143.34 335.758L136.042 332.725V319.746L143.34 322.77V335.758Z" fill="#05BC67"/>
<path d="M143.34 283.786L136.042 280.762V267.774L143.34 270.808V283.786Z" fill="#05BC67"/>
<path d="M143.34 257.81L136.042 254.786V241.798L143.34 244.822V257.81Z" fill="#05BC67"/>
<path d="M143.34 231.824L136.042 228.8V215.812L143.34 218.846V231.824Z" fill="#05BC67"/>
<path d="M143.34 205.848L136.042 202.815V189.836L143.34 192.86V205.848Z" fill="#05BC67"/>
<path d="M143.34 179.862L136.042 176.838V163.85L143.34 166.874V179.862Z" fill="#05BC67"/>
<path d="M143.34 153.876L136.042 150.852V137.864L143.34 140.898V153.876Z" fill="#05BC67"/>
<path d="M143.34 127.9L136.042 124.867V111.888L143.34 114.912V127.9Z" fill="#05BC67"/>
<path d="M143.34 101.914L136.042 98.8904V85.9022L143.34 88.9356V101.914Z" fill="#05BC67"/>
<path d="M155.313 391.946L148.016 388.922V375.934L155.313 378.958V391.946Z" fill="#05BC67"/>
<path d="M155.313 391.946L148.016 388.922V375.934L155.313 378.958V391.946Z" fill="#05BC67"/>
<path d="M155.313 418.354L148.016 415.33V402.342L155.313 405.366V418.354Z" fill="#05BC67"/>
<path d="M167.522 432.554L160.225 429.53V416.542L167.522 419.575V432.554Z" fill="#05BC67"/>
<path d="M155.313 471.171L148.016 468.147V455.168L155.313 458.192V471.171Z" fill="#05BC67"/>
<path d="M155.313 365.96L148.016 362.936V349.948L155.313 352.981V365.96Z" fill="#05BC67"/>
<path d="M155.313 339.984L148.016 336.951V323.972L155.313 326.996V339.984Z" fill="#05BC67"/>
<path d="M155.313 313.998L148.016 310.974V297.986L155.313 301.01V313.998Z" fill="#05BC67"/>
<path d="M155.313 288.013L148.016 284.989V272L155.313 275.034V288.013Z" fill="#05BC67"/>
<path d="M155.313 210.074L148.016 207.041V194.062L155.313 197.086V210.074Z" fill="#05BC67"/>
<path d="M155.313 184.088L148.016 181.064V168.076L155.313 171.1V184.088Z" fill="#05BC67"/>
<path d="M155.313 132.126L148.016 129.093V116.114L155.313 119.138V132.126Z" fill="#05BC67"/>
<path d="M155.313 106.14L148.016 103.116V90.1283L155.313 93.1617V106.14Z" fill="#05BC67"/>
<path d="M167.522 345.149L160.225 342.116V329.137L167.522 332.161V345.149Z" fill="#05BC67"/>
<path d="M167.522 319.163L160.225 316.139V303.151L167.522 306.175V319.163Z" fill="#05BC67"/>
<path d="M167.522 293.178L160.225 290.154V277.166L167.522 280.199V293.178Z" fill="#05BC67"/>
<path d="M167.522 267.201L160.225 264.177V251.189L167.522 254.213V267.201Z" fill="#05BC67"/>
<path d="M167.522 241.216L160.225 238.192V225.203L167.522 228.237V241.216Z" fill="#05BC67"/>
<path d="M167.522 215.239L160.225 212.206V199.227L167.522 202.251V215.239Z" fill="#05BC67"/>
<path d="M167.522 163.268L160.225 160.244V147.256L167.522 150.289V163.268Z" fill="#05BC67"/>
<path d="M167.522 137.291L160.225 134.258V121.279L167.522 124.303V137.291Z" fill="#05BC67"/>
<path d="M167.522 111.306L160.225 108.282V95.2936L167.522 98.327V111.306Z" fill="#05BC67"/>
<path d="M180.238 402.342L172.932 399.318V386.33L180.238 389.354V402.342Z" fill="#05BC67"/>
<path d="M180.238 350.38L172.932 347.356V334.368L180.238 337.392V350.38Z" fill="#05BC67"/>
<path d="M180.238 324.394L172.932 321.37V308.382L180.238 311.416V324.394Z" fill="#05BC67"/>
<path d="M180.238 298.418L172.932 295.385V282.406L180.238 285.43V298.418Z" fill="#05BC67"/>
<path d="M180.238 272.432L172.932 269.408V256.42L180.238 259.444V272.432Z" fill="#05BC67"/>
<path d="M180.238 246.446L172.932 243.422V230.444L180.238 233.468V246.446Z" fill="#05BC67"/>
<path d="M180.238 220.47L172.932 217.446V204.458L180.238 207.482V220.47Z" fill="#05BC67"/>
<path d="M180.238 194.484L172.932 191.46V178.472L180.238 181.506V194.484Z" fill="#05BC67"/>
<path d="M180.238 168.508L172.932 165.475V152.496L180.238 155.52V168.508Z" fill="#05BC67"/>
<path d="M180.238 142.522L172.932 139.498V126.51L180.238 129.534V142.522Z" fill="#05BC67"/>
<path d="M180.238 116.537L172.932 113.513V100.534L180.238 103.558V116.537Z" fill="#05BC67"/>
<path d="M192.381 407.958L185.074 404.925V391.946L192.381 394.97V407.958Z" fill="#05BC67"/>
<path d="M192.381 381.973L185.074 378.948V365.96L192.381 368.984V381.973Z" fill="#05BC67"/>
<path d="M192.381 355.987L185.074 352.963V339.984L192.381 343.008V355.987Z" fill="#05BC67"/>
<path d="M192.381 330.01L185.074 326.986V313.998L192.381 317.022V330.01Z" fill="#05BC67"/>
<path d="M192.381 304.025L185.074 301.001V288.013L192.381 291.046V304.025Z" fill="#05BC67"/>
<path d="M192.381 252.063L185.074 249.039V236.05L192.381 239.074V252.063Z" fill="#05BC67"/>
<path d="M192.381 226.077L185.074 223.053V210.074L192.381 213.098V226.077Z" fill="#05BC67"/>
<path d="M192.381 200.101L185.074 197.077V184.088L192.381 187.112V200.101Z" fill="#05BC67"/>
<path d="M192.381 174.115L185.074 171.091V158.103L192.381 161.136V174.115Z" fill="#05BC67"/>
<path d="M192.381 122.153L185.074 119.129V106.141L192.381 109.165V122.153Z" fill="#05BC67"/>
<path d="M183.891 448.566L176.584 445.542V432.554L183.891 435.578V448.566Z" fill="#05BC67"/>
<path d="M132.323 497.532L128.67 499.007V88.081L132.323 86.6066V497.532Z" fill="#05BC67"/>
<path d="M124.078 401.6L120.424 403.084V91.6027L124.078 90.1283V401.6Z" fill="#05BC67"/>
<path d="M116.818 482.196L113.165 483.671V94.3825L116.818 92.9081V482.196Z" fill="#05BC67"/>
<path d="M141.132 62.9874L135.263 60.5551V50.1307L141.132 52.5631V62.9874Z" fill="#05BC67"/>
<path d="M150.749 87.2451L144.879 84.8128V74.3884L150.749 76.8114V87.2451Z" fill="#05BC67"/>
<path d="M150.749 66.3777L144.879 63.9453V53.521L150.749 55.9534V66.3777Z" fill="#05BC67"/>
<path d="M160.544 91.3867L154.684 88.9544V78.53L160.544 80.9624V91.3867Z" fill="#05BC67"/>
<path d="M170.753 95.594L164.893 93.1617V82.7373L170.753 85.1603V95.594Z" fill="#05BC67"/>
<path d="M170.753 74.7266L164.893 72.3036V61.8699L170.753 64.3022V74.7266Z" fill="#05BC67"/>
<path d="M133.263 81.9954L129.609 83.4699V51.6052L133.263 50.1307V81.9954Z" fill="#05BC67"/>
<path d="M125.956 85.1321L122.303 86.6066V54.7419L125.956 53.2675V85.1321Z" fill="#05BC67"/>
<path d="M119.579 87.6866L115.936 89.161V57.2963L119.579 55.8219V87.6866Z" fill="#05BC67"/>
<path d="M495.645 450.604L502.951 448.2V437.917L495.645 440.311V450.604Z" fill="#05BC67"/>
<path d="M495.645 430.018L502.951 427.624V417.34L495.645 419.735V430.018Z" fill="#05BC67"/>
<path d="M495.645 409.442L502.951 407.038V396.754L495.645 399.149V409.442Z" fill="#05BC67"/>
<path d="M495.645 368.271L502.951 365.876V355.592L495.645 357.987V368.271Z" fill="#05BC67"/>
<path d="M495.645 347.694L502.951 345.29V335.007L495.645 337.411V347.694Z" fill="#05BC67"/>
<path d="M495.645 327.109L502.951 324.714V314.43L495.645 316.825V327.109Z" fill="#05BC67"/>
<path d="M495.645 306.532L502.951 304.137V293.845L495.645 296.249V306.532Z" fill="#05BC67"/>
<path d="M495.645 285.946L502.951 283.552V273.268L495.645 275.663V285.946Z" fill="#05BC67"/>
<path d="M495.645 265.37L502.951 262.966V252.682L495.645 255.077V265.37Z" fill="#05BC67"/>
<path d="M495.645 244.784L502.951 242.39V232.106L495.645 234.501V244.784Z" fill="#05BC67"/>
<path d="M495.645 224.208L502.951 221.804V211.52L495.645 213.915V224.208Z" fill="#05BC67"/>
<path d="M483.671 453.947L490.977 451.553V441.269L483.671 443.664V453.947Z" fill="#05BC67"/>
<path d="M458.747 441.692L466.053 439.288V429.004L458.747 431.399V441.692Z" fill="#05BC67"/>
<path d="M483.671 474.871L490.977 472.467V462.184L483.671 464.588V474.871Z" fill="#05BC67"/>
<path d="M471.462 486.122L478.769 483.727V473.434L471.462 475.839V486.122Z" fill="#05BC67"/>
<path d="M483.671 516.71L490.977 514.315V504.031L483.671 506.426V516.71Z" fill="#05BC67"/>
<path d="M483.671 433.371L490.977 430.967V420.683L483.671 423.078V433.371Z" fill="#05BC67"/>
<path d="M483.671 412.785L490.977 410.391V400.098L483.671 402.502V412.785Z" fill="#05BC67"/>
<path d="M483.671 392.2L490.977 389.805V379.521L483.671 381.916V392.2Z" fill="#05BC67"/>
<path d="M483.671 371.623L490.977 369.228V358.936L483.671 361.34V371.623Z" fill="#05BC67"/>
<path d="M483.671 309.875L490.977 307.481V297.197L483.671 299.592V309.875Z" fill="#05BC67"/>
<path d="M483.671 289.299L490.977 286.895V276.611L483.671 279.006V289.299Z" fill="#05BC67"/>
<path d="M483.671 248.137L490.977 245.733V235.449L483.671 237.844V248.137Z" fill="#05BC67"/>
<path d="M471.462 416.88L478.769 414.476V404.192L471.462 406.587V416.88Z" fill="#05BC67"/>
<path d="M471.462 396.294L478.769 393.9V383.616L471.462 386.011V396.294Z" fill="#05BC67"/>
<path d="M471.462 375.718L478.769 373.314V363.03L471.462 365.425V375.718Z" fill="#05BC67"/>
<path d="M471.462 355.132L478.769 352.737V342.454L471.462 344.849V355.132Z" fill="#05BC67"/>
<path d="M471.462 334.546L478.769 332.152V321.868L471.462 324.263V334.546Z" fill="#05BC67"/>
<path d="M471.462 313.97L478.769 311.575V301.282L471.462 303.687V313.97Z" fill="#05BC67"/>
<path d="M483.671 330.734L490.977 328.339V318.055L483.671 320.45" fill="#05BC67"/>
<path d="M484.591 227.739L491.888 225.344V215.061L484.591 217.456V227.739Z" fill="#05BC67"/>
<path d="M471.462 231.646L478.769 229.242V218.958L471.462 221.353V231.646Z" fill="#05BC67"/>
<path d="M458.747 462.184L466.053 459.789V449.505L458.747 451.9V462.184Z" fill="#05BC67"/>
<path d="M458.747 421.022L466.053 418.627V408.343L458.747 410.738V421.022Z" fill="#05BC67"/>
<path d="M495.645 388.312L502.951 385.917V375.633L495.645 378.028V388.312Z" fill="#05BC67"/>
<path d="M458.747 359.283L466.053 356.879V346.596L458.747 348.99V359.283Z" fill="#05BC67"/>
<path d="M458.747 338.697L466.053 336.303V326.01L458.747 328.414V338.697Z" fill="#05BC67"/>
<path d="M446.604 362.335L453.91 359.931V349.648L446.604 352.042V362.335Z" fill="#05BC67"/>
<path d="M458.747 276.95L466.053 274.555V264.271L458.747 266.666V276.95Z" fill="#05BC67"/>
<path d="M458.747 256.373L466.053 253.969V243.686L458.747 246.09V256.373Z" fill="#05BC67"/>
<path d="M458.747 235.788L466.053 233.393V223.109L458.747 225.504V235.788Z" fill="#05BC67"/>
<path d="M446.604 466.635L453.91 464.231V453.948L446.604 456.352V466.635Z" fill="#05BC67"/>
<path d="M446.604 446.049L453.91 443.655V433.371L446.604 435.766V446.049Z" fill="#05BC67"/>
<path d="M446.604 425.473L453.91 423.069V412.785L446.604 415.18V425.473Z" fill="#05BC67"/>
<path d="M446.604 404.887L453.91 402.492V392.2L446.604 394.604V404.887Z" fill="#05BC67"/>
<path d="M446.604 384.302L453.91 381.907V371.623L446.604 374.018V384.302Z" fill="#05BC67"/>
<path d="M446.604 322.563L453.91 320.168V309.875L446.604 312.27V322.563Z" fill="#05BC67"/>
<path d="M446.604 301.977L453.91 299.583V289.299L446.604 291.694V301.977Z" fill="#05BC67"/>
<path d="M446.604 281.401L453.91 278.997V268.713L446.604 271.108V281.401Z" fill="#05BC67"/>
<path d="M446.604 240.239L453.91 237.835V227.551L446.604 229.946V240.239Z" fill="#05BC67"/>
<path d="M455.093 498.8L462.4 496.406V486.122L455.093 488.517V498.8Z" fill="#05BC67"/>
<path d="M506.67 537.596L510.323 538.76V213.248L506.67 212.074V537.596Z" fill="#05BC67"/>
<path d="M514.916 461.601L518.56 462.775V216.038L514.916 214.873V461.601Z" fill="#05BC67"/>
<path d="M522.166 525.443L525.819 526.608V218.235L522.166 217.061V525.443Z" fill="#05BC67"/>
<path d="M497.852 208.703L503.721 206.778V198.514L497.852 200.439V208.703Z" fill="#05BC67"/>
<path d="M488.244 196.053L494.104 194.128V185.873L488.244 187.798V196.053Z" fill="#05BC67"/>
<path d="M478.44 215.868L484.3 213.943V205.679L478.44 207.604V215.868Z" fill="#05BC67"/>
<path d="M478.44 199.453L484.3 197.527V189.272L478.44 191.198V199.453Z" fill="#05BC67"/>
<path d="M468.232 202.664L474.101 200.739V192.484L468.232 194.409V202.664Z" fill="#05BC67"/>
<path d="M505.731 208.421L509.384 209.595V184.351L505.731 183.177V208.421Z" fill="#05BC67"/>
<path d="M513.028 210.91L516.681 212.075V186.831L513.028 185.666V210.91Z" fill="#05BC67"/>
<path d="M519.405 212.929L523.058 214.103V188.859L519.405 187.685V212.929Z" fill="#05BC67"/>
<path d="M64.9598 403.122L59.8604 401.009V391.946L64.9598 394.059V403.122Z" fill="#05BC67"/>
<path d="M64.9598 384.987L59.8604 382.874V373.821L64.9598 375.934V384.987Z" fill="#05BC67"/>
<path d="M64.9598 366.862L59.8604 364.749V355.686L64.9598 357.799V366.862Z" fill="#05BC67"/>
<path d="M64.9598 330.602L59.8604 328.489V319.426L64.9598 321.539V330.602Z" fill="#05BC67"/>
<path d="M64.9598 312.467L59.8604 310.354V301.301L64.9598 303.414V312.467Z" fill="#05BC67"/>
<path d="M64.9598 294.342L59.8604 292.229V283.167L64.9598 285.28V294.342Z" fill="#05BC67"/>
<path d="M64.9598 276.208L59.8604 274.095V265.041L64.9598 267.154V276.208Z" fill="#05BC67"/>
<path d="M64.9598 258.083L59.8604 255.969V246.907L64.9598 249.02V258.083Z" fill="#05BC67"/>
<path d="M64.9598 239.948L59.8604 237.835V228.782L64.9598 230.895V239.948Z" fill="#05BC67"/>
<path d="M64.9598 221.823L59.8604 219.71V210.647L64.9598 212.76V221.823Z" fill="#05BC67"/>
<path d="M73.3177 406.071L68.2183 403.958V394.895L73.3177 397.008V406.071Z" fill="#05BC67"/>
<path d="M73.3177 406.071L68.2183 403.958V394.895L73.3177 397.008V406.071Z" fill="#05BC67"/>
<path d="M73.3177 424.496L68.2183 422.383V413.321L73.3177 415.434V424.496Z" fill="#05BC67"/>
<path d="M81.8358 434.404L76.7363 432.3V423.238L81.8358 425.351V434.404Z" fill="#05BC67"/>
<path d="M73.3177 461.357L68.2183 459.244V450.182L73.3177 452.295V461.357Z" fill="#05BC67"/>
<path d="M88.1561 479.126L83.0566 477.013V467.95L88.1561 470.063V479.126Z" fill="#05BC67"/>
<path d="M73.3177 387.936L68.2183 385.832V376.77L73.3177 378.883V387.936Z" fill="#05BC67"/>
<path d="M73.3177 369.811L68.2183 367.698V358.635L73.3177 360.748V369.811Z" fill="#05BC67"/>
<path d="M64.9598 349.122L59.8604 347.009V337.946L64.9598 340.05V349.122Z" fill="#05BC67"/>
<path d="M73.3177 333.551L68.2183 331.438V322.375L73.3177 324.488V333.551Z" fill="#05BC67"/>
<path d="M73.3177 279.157L68.2183 277.053V267.99L73.3177 270.103V279.157Z" fill="#05BC67"/>
<path d="M73.3177 261.031L68.2183 258.918V249.856L73.3177 251.969V261.031Z" fill="#05BC67"/>
<path d="M73.3177 224.771L68.2183 222.658V213.596L73.3177 215.709V224.771Z" fill="#05BC67"/>
<path d="M90.701 395.543L85.6016 393.43V384.377L90.701 386.48V395.543Z" fill="#05BC67"/>
<path d="M81.8358 355.282L76.7363 353.169V344.116L81.8358 346.22V355.282Z" fill="#05BC67"/>
<path d="M81.8358 319.023L76.7363 316.91V307.856L81.8358 309.96V319.023Z" fill="#05BC67"/>
<path d="M81.8358 300.897L76.7363 298.784V289.722L81.8358 291.835V300.897Z" fill="#05BC67"/>
<path d="M81.8358 282.763L76.7363 280.65V271.587L81.8358 273.7V282.763Z" fill="#05BC67"/>
<path d="M81.8358 246.503L76.7363 244.39V235.327L81.8358 237.44V246.503Z" fill="#05BC67"/>
<path d="M81.8358 228.378L76.7363 226.265V217.202L81.8358 219.315V228.378Z" fill="#05BC67"/>
<path d="M81.8358 210.243L76.7363 208.13V199.068L81.8358 201.181V210.243Z" fill="#05BC67"/>
<path d="M90.701 413.321L85.6016 411.217V402.154L90.701 404.268V413.321Z" fill="#05BC67"/>
<path d="M90.701 358.936L85.6016 356.823V347.76L90.701 349.873V358.936Z" fill="#05BC67"/>
<path d="M90.701 340.81L85.6016 338.697V329.635L90.701 331.748V340.81Z" fill="#05BC67"/>
<path d="M90.701 322.676L85.6016 320.563V311.5L90.701 313.613V322.676Z" fill="#05BC67"/>
<path d="M90.701 304.541L85.6016 302.438V293.375L90.701 295.488V304.541Z" fill="#05BC67"/>
<path d="M73.3177 351.263L68.2183 349.15V340.087L73.3177 342.2V351.263Z" fill="#05BC67"/>
<path d="M73.3177 297.056L68.2183 294.953V285.89L73.3177 288.003V297.056Z" fill="#05BC67"/>
<path d="M90.701 250.156L85.6016 248.043V238.981L90.701 241.094V250.156Z" fill="#05BC67"/>
<path d="M90.701 232.022L85.6016 229.918V220.855L90.701 222.968V232.022Z" fill="#05BC67"/>
<path d="M90.701 213.896L85.6016 211.783V202.721L90.701 204.834V213.896Z" fill="#05BC67"/>
<path d="M99.1721 417.246L94.082 415.133V406.071L99.1721 408.184V417.246Z" fill="#05BC67"/>
<path d="M99.1721 399.112L94.082 396.999V387.936L99.1721 390.049V399.112Z" fill="#05BC67"/>
<path d="M99.1721 380.986L94.082 378.873V369.811L99.1721 371.924V380.986Z" fill="#05BC67"/>
<path d="M99.1721 362.852L94.082 360.739V351.676L99.1721 353.789V362.852Z" fill="#05BC67"/>
<path d="M99.1721 344.727L94.082 342.614V333.551L99.1721 335.664V344.727Z" fill="#05BC67"/>
<path d="M99.1721 308.457L94.082 306.354V297.291L99.1721 299.404V308.457Z" fill="#05BC67"/>
<path d="M99.1721 290.332L94.082 288.219V279.157L99.1721 281.27V290.332Z" fill="#05BC67"/>
<path d="M99.1721 272.198L94.082 270.085V261.031L99.1721 263.144V272.198Z" fill="#05BC67"/>
<path d="M99.1721 254.072L94.082 251.959V242.897L99.1721 245.01V254.072Z" fill="#05BC67"/>
<path d="M73.3177 243.197L68.2183 241.084V232.022L73.3177 234.135V243.197Z" fill="#05BC67"/>
<path d="M93.2557 445.58L88.1562 443.467V434.404L93.2557 436.517V445.58Z" fill="#05BC67"/>
<path d="M48.2993 403.122L53.3988 401.009V391.946L48.2993 394.059V403.122Z" fill="#05BC67"/>
<path d="M48.2993 384.987L53.3988 382.874V373.821L48.2993 375.934V384.987Z" fill="#05BC67"/>
<path d="M48.2993 366.862L53.3988 364.749V355.686L48.2993 357.799V366.862Z" fill="#05BC67"/>
<path d="M48.2993 330.602L53.3988 328.489V319.426L48.2993 321.539V330.602Z" fill="#05BC67"/>
<path d="M48.2993 312.467L53.3988 310.354V301.301L48.2993 303.414V312.467Z" fill="#05BC67"/>
<path d="M48.2993 294.342L53.3988 292.229V283.167L48.2993 285.28V294.342Z" fill="#05BC67"/>
<path d="M48.2993 276.208L53.3988 274.095V265.041L48.2993 267.154V276.208Z" fill="#05BC67"/>
<path d="M48.2993 258.082L53.3988 255.969V246.907L48.2993 249.02V258.082Z" fill="#05BC67"/>
<path d="M48.2993 239.948L53.3988 237.835V228.781L48.2993 230.895V239.948Z" fill="#05BC67"/>
<path d="M39.9507 406.071L45.0502 403.958V394.895L39.9507 397.008V406.071Z" fill="#05BC67"/>
<path d="M39.9507 406.071L45.0502 403.958V394.895L39.9507 397.008V406.071Z" fill="#05BC67"/>
<path d="M39.9507 424.496L45.0502 422.383V413.321L39.9507 415.434V424.496Z" fill="#05BC67"/>
<path d="M31.4326 434.404L36.5227 432.3V423.238L31.4326 425.351V434.404Z" fill="#05BC67"/>
<path d="M39.9507 461.357L45.0502 459.244V450.182L39.9507 452.295V461.357Z" fill="#05BC67"/>
<path d="M39.9507 387.936L45.0502 385.832V376.77L39.9507 378.883V387.936Z" fill="#05BC67"/>
<path d="M39.9507 351.676L45.0502 349.573V340.51L39.9507 342.623V351.676Z" fill="#05BC67"/>
<path d="M14.0869 362.504L19.1864 360.391V351.338L14.0869 353.442V362.504Z" fill="#05BC67"/>
<path d="M39.9507 279.157L45.0502 277.053V267.99L39.9507 270.103V279.157Z" fill="#05BC67"/>
<path d="M39.9507 261.031L45.0502 258.918V249.856L39.9507 251.969V261.031Z" fill="#05BC67"/>
<path d="M39.9507 224.771L45.0502 222.658V213.596L39.9507 215.709V224.771Z" fill="#05BC67"/>
<path d="M39.9507 206.637L45.0502 204.524V195.471L39.9507 197.574V206.637Z" fill="#05BC67"/>
<path d="M31.4326 373.417L36.5227 371.304V362.241L31.4326 364.354V373.417Z" fill="#05BC67"/>
<path d="M31.4326 355.282L36.5227 353.169V344.116L31.4326 346.22V355.282Z" fill="#05BC67"/>
<path d="M31.4326 337.157L36.5227 335.044V325.982L31.4326 328.095V337.157Z" fill="#05BC67"/>
<path d="M31.4326 319.023L36.5227 316.909V307.856L31.4326 309.96V319.023Z" fill="#05BC67"/>
<path d="M31.4326 300.897L36.5227 298.784V289.722L31.4326 291.835V300.897Z" fill="#05BC67"/>
<path d="M31.4326 282.763L36.5227 280.65V271.587L31.4326 273.7V282.763Z" fill="#05BC67"/>
<path d="M31.4326 246.503L36.5227 244.39V235.327L31.4326 237.44V246.503Z" fill="#05BC67"/>
<path d="M31.4326 228.378L36.5227 226.265V217.202L31.4326 219.315V228.378Z" fill="#05BC67"/>
<path d="M22.5581 413.321L27.6576 411.217V402.154L22.5581 404.268V413.321Z" fill="#05BC67"/>
<path d="M22.5581 377.061L27.6576 374.957V365.895L22.5581 368.008V377.061Z" fill="#05BC67"/>
<path d="M22.5581 358.936L27.6576 356.823V347.76L22.5581 349.873V358.936Z" fill="#05BC67"/>
<path d="M22.5581 340.81L27.6576 338.697V329.635L22.5581 331.748V340.81Z" fill="#05BC67"/>
<path d="M22.5581 322.676L27.6576 320.563V311.5L22.5581 313.613V322.676Z" fill="#05BC67"/>
<path d="M39.9507 297.056L45.0502 294.953V285.89L39.9507 288.003V297.056Z" fill="#05BC67"/>
<path d="M22.5581 304.541L27.6576 302.438V293.375L22.5581 295.488V304.541Z" fill="#05BC67"/>
<path d="M31.4331 263.943L36.5232 261.83V252.767L31.4331 254.88V263.943Z" fill="#05BC67"/>
<path d="M22.5581 250.156L27.6576 248.043V238.981L22.5581 241.094V250.156Z" fill="#05BC67"/>
<path d="M39.9507 243.197L45.0502 241.084V232.022L39.9507 234.135V243.197Z" fill="#05BC67"/>
<path d="M22.5581 213.896L27.6576 211.783V202.721L22.5581 204.834V213.896Z" fill="#05BC67"/>
<path d="M14.0869 417.246L19.1864 415.133V406.071L14.0869 408.184V417.246Z" fill="#05BC67"/>
<path d="M14.0869 399.112L19.1864 396.999V387.936L14.0869 390.049V399.112Z" fill="#05BC67"/>
<path d="M14.0869 380.986L19.1864 378.873V369.811L14.0869 371.924V380.986Z" fill="#05BC67"/>
<path d="M14.0869 308.457L19.1864 306.354V297.291L14.0869 299.404V308.457Z" fill="#05BC67"/>
<path d="M14.0869 290.332L19.1864 288.219V279.156L14.0869 281.269V290.332Z" fill="#05BC67"/>
<path d="M14.0869 272.198L19.1864 270.084V261.031L14.0869 263.144V272.198Z" fill="#05BC67"/>
<path d="M14.0869 254.072L19.1864 251.959V242.897L14.0869 245.01V254.072Z" fill="#05BC67"/>
<path d="M20.0127 445.58L25.1028 443.467V434.404L20.0127 436.517V445.58Z" fill="#05BC67"/>
<path d="M85.6112 458.793L80.5117 456.68V447.618L85.6112 449.731V458.793Z" fill="#05BC67"/>
<path d="M70.7634 494.123L65.6733 492.01V482.948L70.7634 485.061V494.123Z" fill="#05BC67"/>
<path d="M85.6112 505.29L80.5117 503.177V494.123L85.6112 496.236V505.29Z" fill="#05BC67"/>
<path d="M99.1721 496.885L94.082 494.771V485.709L99.1721 487.822V496.885Z" fill="#05BC67"/>
<path d="M25.103 466.25L30.2025 464.137V455.084L25.103 457.187V466.25Z" fill="#05BC67"/>
<path d="M33.9775 505.29L39.077 503.177V494.123L33.9775 496.236V505.29Z" fill="#05BC67"/>
</svg>
