<svg width="327" height="70" viewBox="0 0 327 70" fill="none" xmlns="http://www.w3.org/2000/svg">
<g filter="url(#filter0_d_204_248)">
<path d="M29.55 36.02H20.01L18.18 41H15.96L23.61 20.3H25.98L33.6 41H31.38L29.55 36.02ZM28.92 34.28L24.78 22.94L20.64 34.28H28.92ZM42.6103 41.24C40.7303 41.24 39.1903 40.81 37.9903 39.95C36.8103 39.07 36.1503 37.88 36.0103 36.38H38.1703C38.2703 37.3 38.7003 38.05 39.4603 38.63C40.2403 39.19 41.2803 39.47 42.5803 39.47C43.7203 39.47 44.6103 39.2 45.2503 38.66C45.9103 38.12 46.2403 37.45 46.2403 36.65C46.2403 36.09 46.0603 35.63 45.7003 35.27C45.3403 34.91 44.8803 34.63 44.3203 34.43C43.7803 34.21 43.0403 33.98 42.1003 33.74C40.8803 33.42 39.8903 33.1 39.1303 32.78C38.3703 32.46 37.7203 31.99 37.1803 31.37C36.6603 30.73 36.4003 29.88 36.4003 28.82C36.4003 28.02 36.6403 27.28 37.1203 26.6C37.6003 25.92 38.2803 25.38 39.1603 24.98C40.0403 24.58 41.0403 24.38 42.1603 24.38C43.9203 24.38 45.3403 24.83 46.4203 25.73C47.5003 26.61 48.0803 27.83 48.1603 29.39H46.0603C46.0003 28.43 45.6203 27.66 44.9203 27.08C44.2403 26.48 43.3003 26.18 42.1003 26.18C41.0403 26.18 40.1803 26.43 39.5203 26.93C38.8603 27.43 38.5303 28.05 38.5303 28.79C38.5303 29.43 38.7203 29.96 39.1003 30.38C39.5003 30.78 39.9903 31.1 40.5703 31.34C41.1503 31.56 41.9303 31.81 42.9103 32.09C44.0903 32.41 45.0303 32.72 45.7303 33.02C46.4303 33.32 47.0303 33.76 47.5303 34.34C48.0303 34.92 48.2903 35.69 48.3103 36.65C48.3103 37.53 48.0703 38.32 47.5903 39.02C47.1103 39.7 46.4403 40.24 45.5803 40.64C44.7203 41.04 43.7303 41.24 42.6103 41.24ZM60.0633 24.32C61.3033 24.32 62.4133 24.58 63.3933 25.1C64.3933 25.62 65.1733 26.42 65.7333 27.5C66.3133 28.56 66.6033 29.86 66.6033 31.4V41H64.5333V31.64C64.5333 29.86 64.0833 28.5 63.1833 27.56C62.3033 26.62 61.0933 26.15 59.5533 26.15C57.9733 26.15 56.7133 26.65 55.7733 27.65C54.8333 28.65 54.3633 30.12 54.3633 32.06V41H52.2633V18.8H54.3633V27.41C54.8833 26.43 55.6433 25.67 56.6433 25.13C57.6633 24.59 58.8033 24.32 60.0633 24.32ZM78.1177 24.38C79.6577 24.38 80.9977 24.74 82.1377 25.46C83.2777 26.18 84.0977 27.09 84.5977 28.19V24.62H86.6977V41.42C86.6977 42.92 86.3677 44.25 85.7077 45.41C85.0677 46.57 84.1677 47.46 83.0077 48.08C81.8477 48.72 80.5277 49.04 79.0477 49.04C76.9477 49.04 75.1977 48.54 73.7977 47.54C72.4177 46.54 71.5577 45.18 71.2177 43.46H73.2877C73.6477 44.6 74.3277 45.51 75.3277 46.19C76.3477 46.87 77.5877 47.21 79.0477 47.21C80.1077 47.21 81.0577 46.98 81.8977 46.52C82.7377 46.08 83.3977 45.42 83.8777 44.54C84.3577 43.66 84.5977 42.62 84.5977 41.42V37.37C84.0777 38.49 83.2477 39.42 82.1077 40.16C80.9877 40.88 79.6577 41.24 78.1177 41.24C76.6177 41.24 75.2677 40.89 74.0677 40.19C72.8877 39.49 71.9577 38.5 71.2777 37.22C70.6177 35.94 70.2877 34.46 70.2877 32.78C70.2877 31.1 70.6177 29.63 71.2777 28.37C71.9577 27.09 72.8877 26.11 74.0677 25.43C75.2677 24.73 76.6177 24.38 78.1177 24.38ZM84.5977 32.81C84.5977 31.49 84.3277 30.33 83.7877 29.33C83.2477 28.33 82.5077 27.56 81.5677 27.02C80.6477 26.48 79.6277 26.21 78.5077 26.21C77.3477 26.21 76.3077 26.47 75.3877 26.99C74.4677 27.51 73.7377 28.27 73.1977 29.27C72.6777 30.25 72.4177 31.42 72.4177 32.78C72.4177 34.12 72.6777 35.3 73.1977 36.32C73.7377 37.32 74.4677 38.09 75.3877 38.63C76.3077 39.15 77.3477 39.41 78.5077 39.41C79.6277 39.41 80.6477 39.14 81.5677 38.6C82.5077 38.06 83.2477 37.29 83.7877 36.29C84.3277 35.29 84.5977 34.13 84.5977 32.81ZM90.5318 32.78C90.5318 31.1 90.8618 29.63 91.5218 28.37C92.2018 27.09 93.1318 26.11 94.3118 25.43C95.5118 24.73 96.8618 24.38 98.3618 24.38C99.9218 24.38 101.262 24.74 102.382 25.46C103.522 26.18 104.342 27.1 104.842 28.22V24.62H106.942V41H104.842V37.37C104.322 38.49 103.492 39.42 102.352 40.16C101.232 40.88 99.8918 41.24 98.3318 41.24C96.8518 41.24 95.5118 40.89 94.3118 40.19C93.1318 39.49 92.2018 38.5 91.5218 37.22C90.8618 35.94 90.5318 34.46 90.5318 32.78ZM104.842 32.81C104.842 31.49 104.572 30.33 104.032 29.33C103.492 28.33 102.752 27.56 101.812 27.02C100.892 26.48 99.8718 26.21 98.7518 26.21C97.5918 26.21 96.5518 26.47 95.6318 26.99C94.7118 27.51 93.9818 28.27 93.4418 29.27C92.9218 30.25 92.6618 31.42 92.6618 32.78C92.6618 34.12 92.9218 35.3 93.4418 36.32C93.9818 37.32 94.7118 38.09 95.6318 38.63C96.5518 39.15 97.5918 39.41 98.7518 39.41C99.8718 39.41 100.892 39.14 101.812 38.6C102.752 38.06 103.492 37.29 104.032 36.29C104.572 35.29 104.842 34.13 104.842 32.81ZM113.806 28.25C114.346 27.11 115.176 26.18 116.296 25.46C117.436 24.74 118.776 24.38 120.316 24.38C121.816 24.38 123.156 24.73 124.336 25.43C125.516 26.11 126.436 27.09 127.096 28.37C127.776 29.63 128.116 31.1 128.116 32.78C128.116 34.46 127.776 35.94 127.096 37.22C126.436 38.5 125.506 39.49 124.306 40.19C123.126 40.89 121.796 41.24 120.316 41.24C118.756 41.24 117.406 40.89 116.266 40.19C115.146 39.47 114.326 38.54 113.806 37.4V41H111.736V18.8H113.806V28.25ZM125.986 32.78C125.986 31.42 125.716 30.25 125.176 29.27C124.656 28.27 123.936 27.51 123.016 26.99C122.096 26.47 121.056 26.21 119.896 26.21C118.776 26.21 117.746 26.48 116.806 27.02C115.886 27.56 115.156 28.33 114.616 29.33C114.076 30.33 113.806 31.49 113.806 32.81C113.806 34.13 114.076 35.29 114.616 36.29C115.156 37.29 115.886 38.06 116.806 38.6C117.746 39.14 118.776 39.41 119.896 39.41C121.056 39.41 122.096 39.15 123.016 38.63C123.936 38.09 124.656 37.32 125.176 36.32C125.716 35.3 125.986 34.12 125.986 32.78ZM131.02 32.78C131.02 31.1 131.35 29.63 132.01 28.37C132.69 27.09 133.62 26.11 134.8 25.43C136 24.73 137.35 24.38 138.85 24.38C140.41 24.38 141.75 24.74 142.87 25.46C144.01 26.18 144.83 27.1 145.33 28.22V24.62H147.43V41H145.33V37.37C144.81 38.49 143.98 39.42 142.84 40.16C141.72 40.88 140.38 41.24 138.82 41.24C137.34 41.24 136 40.89 134.8 40.19C133.62 39.49 132.69 38.5 132.01 37.22C131.35 35.94 131.02 34.46 131.02 32.78ZM145.33 32.81C145.33 31.49 145.06 30.33 144.52 29.33C143.98 28.33 143.24 27.56 142.3 27.02C141.38 26.48 140.36 26.21 139.24 26.21C138.08 26.21 137.04 26.47 136.12 26.99C135.2 27.51 134.47 28.27 133.93 29.27C133.41 30.25 133.15 31.42 133.15 32.78C133.15 34.12 133.41 35.3 133.93 36.32C134.47 37.32 135.2 38.09 136.12 38.63C137.04 39.15 138.08 39.41 139.24 39.41C140.36 39.41 141.38 39.14 142.3 38.6C143.24 38.06 143.98 37.29 144.52 36.29C145.06 35.29 145.33 34.13 145.33 32.81ZM154.954 26.39V36.56C154.954 37.56 155.144 38.25 155.524 38.63C155.904 39.01 156.574 39.2 157.534 39.2H159.454V41H157.204C155.724 41 154.624 40.66 153.904 39.98C153.184 39.28 152.824 38.14 152.824 36.56V26.39H150.544V24.62H152.824V20.51H154.954V24.62H159.454V26.39H154.954Z" fill="black"/>
<path d="M178.657 32.69C178.657 30.97 179.007 29.47 179.707 28.19C180.407 26.89 181.377 25.89 182.617 25.19C183.857 24.47 185.277 24.11 186.877 24.11C188.937 24.11 190.637 24.63 191.977 25.67C193.337 26.69 194.247 28.13 194.707 29.99H190.177C189.937 29.27 189.527 28.71 188.947 28.31C188.387 27.89 187.687 27.68 186.847 27.68C185.647 27.68 184.697 28.12 183.997 29C183.297 29.86 182.947 31.09 182.947 32.69C182.947 34.27 183.297 35.5 183.997 36.38C184.697 37.24 185.647 37.67 186.847 37.67C188.547 37.67 189.657 36.91 190.177 35.39H194.707C194.247 37.19 193.337 38.62 191.977 39.68C190.617 40.74 188.917 41.27 186.877 41.27C185.277 41.27 183.857 40.92 182.617 40.22C181.377 39.5 180.407 38.5 179.707 37.22C179.007 35.92 178.657 34.41 178.657 32.69ZM199.913 22.4C199.173 22.4 198.553 22.17 198.053 21.71C197.573 21.23 197.333 20.64 197.333 19.94C197.333 19.24 197.573 18.66 198.053 18.2C198.553 17.72 199.173 17.48 199.913 17.48C200.653 17.48 201.263 17.72 201.743 18.2C202.243 18.66 202.493 19.24 202.493 19.94C202.493 20.64 202.243 21.23 201.743 21.71C201.263 22.17 200.653 22.4 199.913 22.4ZM201.983 24.38V41H197.783V24.38H201.983ZM211.023 27.83V35.87C211.023 36.43 211.153 36.84 211.413 37.1C211.693 37.34 212.153 37.46 212.793 37.46H214.743V41H212.103C208.563 41 206.793 39.28 206.793 35.84V27.83H204.813V24.38H206.793V20.27H211.023V24.38H214.743V27.83H211.023ZM233.664 24.38L223.374 48.86H218.904L222.504 40.58L215.844 24.38H220.554L224.844 35.99L229.194 24.38H233.664Z" fill="black"/>
<path d="M179.707 28.19L179.816 28.25L179.817 28.2493L179.707 28.19ZM182.617 25.19L182.678 25.2989L182.679 25.2981L182.617 25.19ZM191.977 25.67L191.9 25.7688L191.902 25.77L191.977 25.67ZM194.707 29.99V30.115C194.745 30.115 194.781 30.0973 194.805 30.067C194.829 30.0368 194.837 29.9973 194.828 29.96L194.707 29.99ZM190.177 29.99L190.058 30.0295C190.075 30.0806 190.123 30.115 190.177 30.115V29.99ZM188.947 28.31L188.871 28.4101L188.876 28.4129L188.947 28.31ZM183.997 29L184.093 29.0789L184.094 29.0778L183.997 29ZM183.997 36.38L183.899 36.4578L183.9 36.4589L183.997 36.38ZM190.177 35.39V35.265C190.123 35.265 190.076 35.299 190.058 35.3495L190.177 35.39ZM194.707 35.39L194.828 35.4209C194.837 35.3835 194.829 35.3438 194.805 35.3133C194.782 35.2828 194.745 35.265 194.707 35.265V35.39ZM191.977 39.68L192.053 39.7786L191.977 39.68ZM182.617 40.22L182.554 40.3281L182.555 40.3289L182.617 40.22ZM179.707 37.22L179.596 37.2793L179.597 37.28L179.707 37.22ZM178.782 32.69C178.782 30.9872 179.128 29.5085 179.816 28.25L179.597 28.13C178.885 29.4315 178.532 30.9528 178.532 32.69H178.782ZM179.817 28.2493C180.506 26.9692 181.459 25.9868 182.678 25.2989L182.555 25.0811C181.294 25.7932 180.307 26.8108 179.596 28.1307L179.817 28.2493ZM182.679 25.2981C183.898 24.5904 185.296 24.235 186.877 24.235V23.985C185.257 23.985 183.815 24.3496 182.554 25.0819L182.679 25.2981ZM186.877 24.235C188.915 24.235 190.586 24.7492 191.9 25.7687L192.053 25.5712C190.687 24.5108 188.958 23.985 186.877 23.985V24.235ZM191.902 25.77C193.236 26.7705 194.131 28.1842 194.585 30.02L194.828 29.96C194.362 28.0758 193.437 26.6095 192.052 25.57L191.902 25.77ZM194.707 29.865H190.177V30.115H194.707V29.865ZM190.295 29.9505C190.047 29.2068 189.622 28.6237 189.017 28.2071L188.876 28.4129C189.431 28.7963 189.826 29.3331 190.058 30.0295L190.295 29.9505ZM189.022 28.21C188.436 27.7707 187.708 27.555 186.847 27.555V27.805C187.665 27.805 188.337 28.0093 188.872 28.41L189.022 28.21ZM186.847 27.555C185.611 27.555 184.624 28.0101 183.899 28.9222L184.094 29.0778C184.769 28.2299 185.682 27.805 186.847 27.805V27.555ZM183.9 28.9211C183.175 29.8114 182.822 31.0737 182.822 32.69H183.072C183.072 31.1063 183.418 29.9086 184.093 29.0789L183.9 28.9211ZM182.822 32.69C182.822 34.287 183.175 35.5483 183.899 36.4578L184.094 36.3022C183.418 35.4517 183.072 34.253 183.072 32.69H182.822ZM183.9 36.4589C184.625 37.3507 185.612 37.795 186.847 37.795V37.545C185.681 37.545 184.768 37.1293 184.093 36.3011L183.9 36.4589ZM186.847 37.795C187.715 37.795 188.444 37.6007 189.025 37.2031C189.606 36.8051 190.028 36.2108 190.295 35.4305L190.058 35.3495C189.805 36.0892 189.412 36.6349 188.883 36.9969C188.354 37.3593 187.678 37.545 186.847 37.545V37.795ZM190.177 35.515H194.707V35.265H190.177V35.515ZM194.585 35.359C194.132 37.1344 193.236 38.5398 191.9 39.5814L192.053 39.7786C193.437 38.7002 194.361 37.2456 194.828 35.4209L194.585 35.359ZM191.9 39.5814C190.565 40.6213 188.894 41.145 186.877 41.145V41.395C188.939 41.395 190.668 40.8587 192.053 39.7786L191.9 39.5814ZM186.877 41.145C185.295 41.145 183.897 40.7993 182.678 40.1111L182.555 40.3289C183.816 41.0407 185.258 41.395 186.877 41.395V41.145ZM182.679 40.1119C181.459 39.4036 180.505 38.4204 179.816 37.16L179.597 37.28C180.308 38.5796 181.294 39.5964 182.554 40.3281L182.679 40.1119ZM179.817 37.1607C179.128 35.8817 178.782 34.3927 178.782 32.69H178.532C178.532 34.4273 178.885 35.9583 179.596 37.2793L179.817 37.1607ZM198.053 21.71L197.965 21.7985L197.969 21.802L198.053 21.71ZM198.053 18.2L198.14 18.2902L198.14 18.2902L198.053 18.2ZM201.743 18.2L201.655 18.2885L201.659 18.292L201.743 18.2ZM201.743 21.71L201.83 21.8002L201.83 21.8002L201.743 21.71ZM201.983 24.38H202.108C202.108 24.311 202.052 24.255 201.983 24.255V24.38ZM201.983 41V41.125C202.052 41.125 202.108 41.069 202.108 41H201.983ZM197.783 41H197.658C197.658 41.069 197.714 41.125 197.783 41.125V41ZM197.783 24.38V24.255C197.714 24.255 197.658 24.311 197.658 24.38H197.783ZM199.913 22.275C199.202 22.275 198.613 22.0548 198.138 21.618L197.969 21.802C198.494 22.2852 199.145 22.525 199.913 22.525V22.275ZM198.142 21.6216C197.686 21.1659 197.458 20.608 197.458 19.94H197.208C197.208 20.672 197.461 21.2941 197.965 21.7984L198.142 21.6216ZM197.458 19.94C197.458 19.2721 197.686 18.7253 198.14 18.2902L197.967 18.1097C197.461 18.5947 197.208 19.2079 197.208 19.94H197.458ZM198.14 18.2902C198.615 17.8341 199.203 17.605 199.913 17.605V17.355C199.144 17.355 198.492 17.6059 197.967 18.1098L198.14 18.2902ZM199.913 17.605C200.624 17.605 201.201 17.8341 201.655 18.2884L201.832 18.1116C201.326 17.6059 200.683 17.355 199.913 17.355V17.605ZM201.659 18.292C202.132 18.7275 202.368 19.2738 202.368 19.94H202.618C202.618 19.2062 202.355 18.5925 201.828 18.108L201.659 18.292ZM202.368 19.94C202.368 20.6063 202.132 21.1637 201.657 21.6198L201.83 21.8002C202.355 21.2963 202.618 20.6737 202.618 19.94H202.368ZM201.657 21.6198C201.203 22.0548 200.625 22.275 199.913 22.275V22.525C200.682 22.525 201.324 22.2851 201.83 21.8002L201.657 21.6198ZM201.858 24.38V41H202.108V24.38H201.858ZM201.983 40.875H197.783V41.125H201.983V40.875ZM197.908 41V24.38H197.658V41H197.908ZM197.783 24.505H201.983V24.255H197.783V24.505ZM211.023 27.83V27.705C210.954 27.705 210.898 27.761 210.898 27.83H211.023ZM211.413 37.1L211.324 37.1886L211.332 37.1949L211.413 37.1ZM214.743 37.46H214.868C214.868 37.391 214.812 37.335 214.743 37.335V37.46ZM214.743 41V41.125C214.812 41.125 214.868 41.069 214.868 41H214.743ZM206.793 27.83H206.918C206.918 27.761 206.862 27.705 206.793 27.705V27.83ZM204.813 27.83H204.688C204.688 27.899 204.744 27.955 204.813 27.955V27.83ZM204.813 24.38V24.255C204.744 24.255 204.688 24.311 204.688 24.38H204.813ZM206.793 24.38V24.505C206.862 24.505 206.918 24.449 206.918 24.38H206.793ZM206.793 20.27V20.145C206.724 20.145 206.668 20.201 206.668 20.27H206.793ZM211.023 20.27H211.148C211.148 20.201 211.092 20.145 211.023 20.145V20.27ZM211.023 24.38H210.898C210.898 24.449 210.954 24.505 211.023 24.505V24.38ZM214.743 24.38H214.868C214.868 24.311 214.812 24.255 214.743 24.255V24.38ZM214.743 27.83V27.955C214.812 27.955 214.868 27.899 214.868 27.83H214.743ZM210.898 27.83V35.87H211.148V27.83H210.898ZM210.898 35.87C210.898 36.4461 211.031 36.8952 211.325 37.1884L211.501 37.0116C211.275 36.7848 211.148 36.4139 211.148 35.87H210.898ZM211.332 37.1949C211.646 37.4642 212.143 37.585 212.793 37.585V37.335C212.163 37.335 211.74 37.2158 211.494 37.0051L211.332 37.1949ZM212.793 37.585H214.743V37.335H212.793V37.585ZM214.618 37.46V41H214.868V37.46H214.618ZM214.743 40.875H212.103V41.125H214.743V40.875ZM212.103 40.875C210.351 40.875 209.061 40.4494 208.208 39.6204C207.355 38.7919 206.918 37.5398 206.918 35.84H206.668C206.668 37.5802 207.116 38.9081 208.033 39.7996C208.95 40.6906 210.315 41.125 212.103 41.125V40.875ZM206.918 35.84V27.83H206.668V35.84H206.918ZM206.793 27.705H204.813V27.955H206.793V27.705ZM204.938 27.83V24.38H204.688V27.83H204.938ZM204.813 24.505H206.793V24.255H204.813V24.505ZM206.918 24.38V20.27H206.668V24.38H206.918ZM206.793 20.395H211.023V20.145H206.793V20.395ZM210.898 20.27V24.38H211.148V20.27H210.898ZM211.023 24.505H214.743V24.255H211.023V24.505ZM214.618 24.38V27.83H214.868V24.38H214.618ZM214.743 27.705H211.023V27.955H214.743V27.705ZM233.664 24.38L233.779 24.4284C233.795 24.3898 233.791 24.3457 233.768 24.3108C233.745 24.276 233.706 24.255 233.664 24.255V24.38ZM223.374 48.86V48.985C223.424 48.985 223.47 48.9548 223.489 48.9084L223.374 48.86ZM218.904 48.86L218.789 48.8102C218.772 48.8488 218.776 48.8933 218.799 48.9285C218.822 48.9638 218.862 48.985 218.904 48.985V48.86ZM222.504 40.58L222.618 40.6298C222.632 40.5989 222.632 40.5637 222.619 40.5325L222.504 40.58ZM215.844 24.38V24.255C215.802 24.255 215.763 24.2758 215.74 24.3104C215.717 24.345 215.712 24.389 215.728 24.4275L215.844 24.38ZM220.554 24.38L220.671 24.3367C220.653 24.2876 220.606 24.255 220.554 24.255V24.38ZM224.844 35.99L224.727 36.0333C224.745 36.0823 224.791 36.1149 224.844 36.115C224.896 36.1151 224.943 36.0828 224.961 36.0339L224.844 35.99ZM229.194 24.38V24.255C229.142 24.255 229.095 24.2873 229.077 24.3361L229.194 24.38ZM233.549 24.3316L223.259 48.8116L223.489 48.9084L233.779 24.4284L233.549 24.3316ZM223.374 48.735H218.904V48.985H223.374V48.735ZM219.018 48.9098L222.618 40.6298L222.389 40.5302L218.789 48.8102L219.018 48.9098ZM222.619 40.5325L215.959 24.3325L215.728 24.4275L222.388 40.6275L222.619 40.5325ZM215.844 24.505H220.554V24.255H215.844V24.505ZM220.437 24.4233L224.727 36.0333L224.961 35.9467L220.671 24.3367L220.437 24.4233ZM224.961 36.0339L229.311 24.4239L229.077 24.3361L224.727 35.9461L224.961 36.0339ZM229.194 24.505H233.664V24.255H229.194V24.505Z" fill="black"/>
<path d="M262.875 35C262.875 35.8311 262.058 36.5417 261 36.5417L259.667 36.5417C257.872 36.5417 256.458 35.3336 256.458 33.8889L256.458 26.1112C256.458 24.6664 257.872 23.4584 259.667 23.4584L261 23.4584C262.058 23.4584 262.875 24.169 262.875 25L262.875 25.5556C262.875 26.0798 262.356 26.5417 261.667 26.5417C260.884 26.5417 260.208 27.0748 260.208 27.7778L260.208 32.2223C260.208 32.9253 260.884 33.4584 261.667 33.4584C262.356 33.4584 262.875 33.9202 262.875 34.4445L262.875 35Z" fill="#05BC67" stroke="#05BC67" stroke-width="0.25"/>
<path d="M265.778 20.125C266.456 20.125 267.042 20.7929 267.042 21.6667C267.042 22.5404 266.456 23.2083 265.778 23.2083L264.389 23.2083C263.712 23.2083 263.125 22.5404 263.125 21.6667C263.125 20.7929 263.712 20.125 264.389 20.125L265.778 20.125Z" fill="#05BC67" stroke="#05BC67" stroke-width="0.25"/>
<path d="M269.945 23.4584C270.622 23.4584 271.208 24.1263 271.208 25C271.208 25.8738 270.622 26.5417 269.945 26.5417L268.556 26.5417C267.878 26.5417 267.292 25.8738 267.292 25C267.292 24.1263 267.878 23.4584 268.556 23.4584L269.945 23.4584Z" fill="#05BC67" stroke="#05BC67" stroke-width="0.25"/>
<path d="M269.945 33.4584C270.622 33.4584 271.208 34.1263 271.208 35C271.208 35.8738 270.622 36.5417 269.945 36.5417L268.556 36.5417C267.878 36.5417 267.292 35.8738 267.292 35C267.292 34.1263 267.878 33.4584 268.556 33.4584L269.945 33.4584Z" fill="#05BC67" stroke="#05BC67" stroke-width="0.25"/>
<path d="M265.778 36.7916C266.456 36.7916 267.042 37.4595 267.042 38.3333C267.042 39.207 266.456 39.875 265.778 39.875L264.389 39.875C263.712 39.875 263.125 39.207 263.125 38.3333C263.125 37.4595 263.712 36.7916 264.389 36.7916L265.778 36.7916Z" fill="#05BC67" stroke="#05BC67" stroke-width="0.25"/>
<path d="M273.833 27.625C275.145 27.625 276.208 28.6883 276.208 30C276.208 31.3117 275.145 32.375 273.833 32.375C272.522 32.375 271.458 31.3117 271.458 30C271.458 28.6883 272.522 27.625 273.833 27.625Z" fill="#05BC67" stroke="#05BC67" stroke-width="0.25"/>
</g>
<defs>
<filter id="filter0_d_204_248" x="-9.53674e-07" y="-10" width="326.333" height="110" filterUnits="userSpaceOnUse" color-interpolation-filters="sRGB">
<feFlood flood-opacity="0" result="BackgroundImageFix"/>
<feColorMatrix in="SourceAlpha" type="matrix" values="0 0 0 0 0 0 0 0 0 0 0 0 0 0 0 0 0 0 127 0" result="hardAlpha"/>
<feOffset dx="15" dy="15"/>
<feGaussianBlur stdDeviation="15"/>
<feColorMatrix type="matrix" values="0 0 0 0 0.270588 0 0 0 0 0.27451 0 0 0 0 0.278431 0 0 0 0.13 0"/>
<feBlend mode="normal" in2="BackgroundImageFix" result="effect1_dropShadow_204_248"/>
<feBlend mode="normal" in="SourceGraphic" in2="effect1_dropShadow_204_248" result="shape"/>
</filter>
</defs>
</svg>
